<?xml version="1.0" encoding="UTF-8"?>
<svg id="Layer_1" xmlns="http://www.w3.org/2000/svg" viewBox="0 0 923.739 404.565">
  <g>
    <path d="M434.917,121.678l-38.674,99.467h15.983l8.018-22.119h40.66l7.978,22.119h15.841l-38.532-99.467h-11.274ZM424.951,186.039l15.673-43.24,15.595,43.24h-31.268Z"/>
    <polygon points="468.168 134.665 500.704 134.665 500.704 221.145 515.404 221.145 515.404 134.665 547.799 134.665 547.799 121.678 468.168 121.678 468.168 134.665"/>
    <polygon points="553.363 221.145 619.153 221.145 619.153 208.159 567.921 208.159 567.921 176.763 614.87 176.763 614.87 163.777 567.921 163.777 567.921 134.665 619.153 134.665 619.153 121.678 553.363 121.678 553.363 221.145"/>
    <polygon points="707.915 121.678 688.505 121.678 643.982 168.334 643.982 121.678 629.425 121.678 629.425 221.145 643.982 221.145 643.982 186.834 659.519 171.001 691.218 221.145 708.199 221.145 670.006 160.313 707.915 121.678"/>
    <rect x="744.162" y="121.678" width="14.555" height="99.467"/>
    <polygon points="764.283 121.678 764.283 134.665 796.821 134.665 796.821 221.145 811.519 221.145 811.519 134.665 843.913 134.665 843.913 121.678 764.283 121.678"/>
  </g>
  <g>
    <path d="M402.445,296.355v-49.654h32.486v4.203h-27.855v18.095h25.004v4.203h-25.004v18.95h27.855v4.203h-32.486Z"/>
    <path d="M441.057,296.355v-35.121h4.559v9.048h-.926c.428-1.662.998-3.087,1.71-4.275.712-1.186,1.567-2.173,2.565-2.956.996-.784,2.077-1.365,3.241-1.745,1.164-.379,2.386-.57,3.67-.57,2.088,0,3.929.392,5.52,1.176s2.886,1.983,3.884,3.597c.996,1.615,1.684,3.681,2.066,6.198l-2.493.142c.664-2.422,1.531-4.452,2.6-6.091,1.068-1.639,2.409-2.885,4.024-3.74,1.614-.855,3.515-1.283,5.7-1.283,2.849,0,5.129.654,6.838,1.959,1.71,1.306,2.944,3.052,3.705,5.236.758,2.185,1.14,4.679,1.14,7.48v20.945h-4.489v-19.947c0-2.422-.262-4.512-.784-6.269-.523-1.757-1.378-3.11-2.564-4.061-1.189-.949-2.803-1.425-4.845-1.425-1.757,0-3.312.463-4.666,1.39-1.354.926-2.399,2.339-3.135,4.239-.737,1.9-1.105,4.274-1.105,7.123v18.95h-4.559v-20.589c0-3.751-.677-6.542-2.03-8.37-1.354-1.828-3.36-2.743-6.02-2.743-1.757,0-3.325.476-4.702,1.425-1.378.951-2.446,2.399-3.205,4.346-.76,1.948-1.14,4.417-1.14,7.409v18.522h-4.559Z"/>
    <path d="M497.691,310.888v-49.654h4.489v11.042l-1.425-.998c.666-2.232,1.639-4.132,2.921-5.699,1.282-1.567,2.849-2.766,4.702-3.598,1.852-.83,3.917-1.247,6.197-1.247,3.135,0,5.901.796,8.3,2.386,2.398,1.592,4.273,3.74,5.627,6.447s2.03,5.795,2.03,9.261c0,3.561-.712,6.708-2.137,9.439-1.424,2.732-3.336,4.845-5.734,6.34-2.399,1.496-5.094,2.244-8.087,2.244-2.279,0-4.358-.44-6.233-1.318-1.877-.879-3.443-2.102-4.701-3.669-1.259-1.567-2.15-3.348-2.672-5.343l1.212-1.14v25.504h-4.489ZM513.863,292.722c2.374,0,4.476-.593,6.305-1.781,1.828-1.186,3.264-2.825,4.31-4.915,1.044-2.09,1.567-4.489,1.567-7.195s-.523-5.105-1.567-7.196c-1.045-2.089-2.482-3.74-4.31-4.951-1.829-1.211-3.931-1.817-6.305-1.817s-4.465.606-6.269,1.817c-1.807,1.211-3.218,2.862-4.24,4.951-1.022,2.091-1.531,4.489-1.531,7.196s.509,5.106,1.531,7.195c1.022,2.09,2.433,3.729,4.24,4.915,1.804,1.188,3.893,1.781,6.269,1.781Z"/>
    <path d="M553.329,296.854c-3.231,0-6.117-.772-8.656-2.315-2.541-1.543-4.524-3.68-5.948-6.411-1.425-2.73-2.137-5.853-2.137-9.368s.699-6.625,2.101-9.333c1.401-2.707,3.373-4.832,5.914-6.376,2.54-1.543,5.45-2.315,8.727-2.315s6.162.772,8.655,2.315c2.493,1.544,4.463,3.669,5.913,6.376,1.448,2.707,2.173,5.818,2.173,9.333s-.725,6.638-2.173,9.368c-1.449,2.731-3.432,4.869-5.948,6.411-2.519,1.544-5.391,2.315-8.62,2.315ZM553.329,292.864c2.468,0,4.618-.593,6.447-1.781,1.828-1.187,3.241-2.837,4.238-4.952.998-2.112,1.496-4.57,1.496-7.373,0-2.849-.498-5.331-1.496-7.444-.998-2.113-2.41-3.751-4.238-4.916-1.829-1.163-3.979-1.745-6.447-1.745s-4.631.594-6.484,1.781c-1.852,1.188-3.288,2.826-4.31,4.915-1.022,2.091-1.531,4.56-1.531,7.409,0,2.803.509,5.261,1.531,7.373,1.022,2.114,2.458,3.765,4.31,4.952,1.853,1.188,4.013,1.781,6.484,1.781Z"/>
    <path d="M583.821,296.355l-10.187-35.121h4.773l7.836,28.425,9.475-28.425h4.131l9.546,28.282,7.837-28.282h4.773l-10.259,35.121h-4.275l-9.617-28.923-9.688,28.923h-4.345Z"/>
    <path d="M641.88,296.854c-2.613,0-4.928-.452-6.945-1.354-2.019-.902-3.694-2.161-5.023-3.776-1.33-1.614-2.34-3.514-3.028-5.699s-1.033-4.512-1.033-6.982c0-2.517.332-4.88.998-7.088.664-2.208,1.651-4.155,2.956-5.842,1.306-1.685,2.921-3.003,4.845-3.954,1.923-.949,4.142-1.425,6.661-1.425,2.659,0,4.952.463,6.875,1.39,1.923.926,3.49,2.185,4.701,3.775,1.212,1.592,2.113,3.338,2.707,5.236.594,1.9.891,3.823.891,5.77,0,.381-.013.879-.035,1.496-.025.618-.084,1.14-.179,1.567h-26.003c.096,4.037,1.176,7.171,3.242,9.404,2.066,2.233,4.856,3.348,8.371,3.348,2.232,0,4.142-.344,5.735-1.033,1.59-.688,3.121-1.84,4.594-3.455l3.205,2.849c-1.33,1.378-2.683,2.482-4.059,3.312-1.379.832-2.84,1.449-4.382,1.852-1.544.403-3.242.606-5.094.606ZM651.996,277.69c.094-.379.142-.771.142-1.175v-1.176c0-1.235-.203-2.493-.605-3.776-.404-1.282-1.033-2.446-1.888-3.49-.854-1.044-1.971-1.9-3.347-2.565-1.378-.664-3.017-.997-4.916-.997-2.184,0-4.096.547-5.734,1.639-1.639,1.093-2.91,2.541-3.812,4.345-.902,1.806-1.424,3.847-1.567,6.127h23.224l-1.496,1.068Z"/>
    <path d="M664.035,296.355v-35.121h4.559v9.333l-1.14.213c.38-2.184,1.212-4.012,2.493-5.485,1.283-1.472,2.779-2.6,4.489-3.384s3.349-1.176,4.915-1.176c.95,0,1.912.107,2.886.321.972.213,1.911.559,2.814,1.033l-2.209,4.061c-.618-.285-1.306-.522-2.066-.713-.76-.189-1.496-.285-2.209-.285-1.235,0-2.469.239-3.703.713-1.235.475-2.364,1.223-3.384,2.244-1.022,1.022-1.77,2.386-2.244,4.097-.19.712-.345,1.591-.463,2.635-.12,1.045-.179,2.493-.179,4.346v17.169h-4.559Z"/>
    <path d="M700.509,296.854c-2.327,0-4.43-.356-6.305-1.069s-3.49-1.674-4.843-2.885-2.412-2.552-3.17-4.025l3.205-2.564c.902,1.995,2.315,3.622,4.238,4.88,1.923,1.259,4.214,1.888,6.875,1.888,2.517,0,4.535-.558,6.056-1.674,1.518-1.116,2.279-2.647,2.279-4.596,0-1.614-.463-2.861-1.39-3.74-.926-.878-2.113-1.578-3.561-2.101-1.449-.522-3.028-.973-4.738-1.354-1.33-.331-2.661-.723-3.989-1.175-1.33-.451-2.529-1.021-3.598-1.71-1.068-.687-1.912-1.578-2.529-2.671-.618-1.092-.926-2.446-.926-4.06,0-2.754,1.079-4.987,3.241-6.697s4.975-2.564,8.443-2.564c2.612,0,4.998.559,7.159,1.674,2.16,1.116,3.834,2.813,5.022,5.094l-2.92,2.137c-.998-1.852-2.316-3.193-3.954-4.025-1.639-.83-3.456-1.247-5.45-1.247-2.137,0-3.907.476-5.308,1.425-1.401.95-2.102,2.233-2.102,3.847,0,1.188.332,2.149.998,2.885.664.737,1.614,1.342,2.849,1.817,1.234.476,2.683.903,4.345,1.283,1.52.333,3.028.737,4.524,1.211,1.497.476,2.873,1.081,4.133,1.817,1.258.737,2.256,1.722,2.991,2.957.736,1.235,1.105,2.802,1.105,4.702,0,2.137-.523,4.001-1.567,5.592-1.045,1.592-2.517,2.814-4.417,3.669s-4.131,1.283-6.696,1.283Z"/>
    <path d="M750.803,296.355v-19.021l-17.524-30.633h5.271l14.462,25.931,14.604-25.931h5.343l-17.454,30.633v19.021h-4.702Z"/>
    <path d="M787.207,296.854c-3.231,0-6.117-.772-8.656-2.315-2.541-1.543-4.524-3.68-5.948-6.411-1.425-2.73-2.137-5.853-2.137-9.368s.699-6.625,2.101-9.333c1.401-2.707,3.373-4.832,5.914-6.376,2.54-1.543,5.45-2.315,8.727-2.315s6.162.772,8.655,2.315c2.493,1.544,4.463,3.669,5.913,6.376,1.448,2.707,2.173,5.818,2.173,9.333s-.725,6.638-2.173,9.368c-1.449,2.731-3.432,4.869-5.948,6.411-2.519,1.544-5.391,2.315-8.62,2.315ZM787.207,292.864c2.468,0,4.618-.593,6.447-1.781,1.828-1.187,3.241-2.837,4.238-4.952.998-2.112,1.496-4.57,1.496-7.373,0-2.849-.498-5.331-1.496-7.444-.998-2.113-2.41-3.751-4.238-4.916-1.829-1.163-3.979-1.745-6.447-1.745s-4.631.594-6.484,1.781c-1.852,1.188-3.288,2.826-4.31,4.915-1.022,2.091-1.531,4.56-1.531,7.409,0,2.803.509,5.261,1.531,7.373,1.022,2.114,2.458,3.765,4.31,4.952,1.853,1.188,4.013,1.781,6.484,1.781Z"/>
    <path d="M822.756,296.854c-2.471,0-4.608-.51-6.412-1.532-1.805-1.021-3.194-2.541-4.168-4.56-.974-2.018-1.461-4.57-1.461-7.658v-21.87h4.489v20.303c0,2.565.332,4.691.998,6.376.664,1.686,1.638,2.945,2.921,3.776,1.282.831,2.896,1.247,4.843,1.247,2.09,0,3.871-.499,5.344-1.496,1.47-.997,2.6-2.517,3.383-4.559.784-2.042,1.176-4.654,1.176-7.837v-17.81h4.487v35.121h-4.487v-8.193h1.068c-.902,2.898-2.434,5.07-4.594,6.518-2.163,1.449-4.691,2.173-7.587,2.173Z"/>
  </g>
  <g>
    <path d="M251.793,84.296c-16.205,7.747-25.577,18.454-30.319,25.489-8.415-13.134-22.751-21.548-30.809-25.489h61.128Z"/>
    <path d="M190.754,84.296c16.205-7.747,25.577-18.454,30.319-25.489,8.415,13.134,22.751,21.548,30.809,25.489h-61.128Z"/>
    <path d="M263.636,110.698c-15.605,4.34-29.429,14.202-36.441,28.004-.534.935-3.361,6.189-5.899,14.024-2.538-7.836-5.365-13.089-5.899-14.024-6.567-12.956-19.411-23.084-35.261-27.759-.378-.111-.757-.223-1.135-.312l8.192-18.498c8.437,4.163,24.287,13.646,30.141,28.138l3.874,9.505,4.029-9.439c.089-.178,7.68-17.474,30.164-28.271l8.236,18.633Z"/>
    <path d="M217.134,177.458v.312c-.067,12.644-4.208,26.802-17.742,39.046-8.949,8.08-21.727,12.088-35.952,11.309-4.519-.245-8.793-.312-12.867-.178-9.483.289-17.786,1.536-24.999,3.361l8.014-18.121c6.389,3.428,13.423,5.543,20.658,6.211,10.329.979,21.081-.89,30.965-5.877,1.67-.846,3.384-1.714,5.187-3.005,7.302-5.365,12.243-13.156,13.891-21.927,1.959-10.463.579-21.37-3.74-29.963-5.097-10.128-13.957-17.564-24.309-20.458-2.938-.801-5.877-1.247-8.86-1.313-7.279-.201-14.536,1.847-21.103,5.966-7.012,4.43-17.764,17.23-8.303,33.836,1.982,3.451,4.764,6.255,8.147,8.214,1.915,1.113,4.007,1.937,6.278,2.493,5.61,1.335,11.487.623,16.451-1.937.712-.356,1.402-.757,2.07-1.202,5.543-3.651,9.149-9.595,9.906-16.295.267-2.338-1.425-4.452-3.762-4.72-2.382-.245-4.474,1.425-4.742,3.762-.467,4.185-2.693,7.88-6.099,10.107-3.384,2.248-7.702,2.961-11.821,1.959-1.758-.423-3.361-1.113-4.764-2.092-1.759-1.135-3.183-2.671-4.229-4.518-7.636-13.401,4.096-21.527,5.432-22.395,3.985-2.516,8.326-4.029,12.711-4.474,3.473-.379,6.99-.111,10.396.846,8.148,2.271,14.893,7.97,18.966,16.072,3.473,6.834,4.564,16.028,2.983,24.554-1.224,6.522-5.076,12.578-10.685,16.673-1.068.802-2.404,1.47-4.007,2.271-7.457,3.762-15.516,5.432-23.396,5.12-7.279-.267-14.403-2.204-20.747-5.721-4.23-2.337-8.126-5.365-11.465-9.06-10.351-11.42-14.736-26.357-11.998-41.005,2.716-14.626,11.865-26.869,25.133-33.547,10.663-5.365,23.93-6.522,36.797-3.25.734.178,1.469.379,2.203.601,13.602,4.029,24.576,12.6,30.075,23.53l.133.222c.601,1.047,9.194,16.184,9.194,34.593Z"/>
    <g>
      <path d="M309.027,213.209l8.036,18.121c-7.213-1.826-15.538-3.072-25.021-3.384-4.074-.111-8.37-.067-12.889.178-14.224.801-26.98-3.228-35.929-11.309-33.414-30.164-9.595-72.17-8.571-73.951l.134-.222c6.122-12.132,18.454-20.68,32.278-24.22,12.199-3.116,25.555-2.337,36.797,3.339,13.267,6.678,22.439,18.922,25.155,33.547,2.716,14.648-1.647,29.585-12.021,41.005-3.339,3.695-7.213,6.723-11.442,9.038-6.345,3.517-13.468,5.477-20.77,5.721-7.903.289-16.028-1.38-23.552-5.187-1.425-.712-2.761-1.38-3.963-2.271-5.477-4.007-9.328-10.062-10.552-16.584-1.603-8.526-.49-17.72,2.96-24.554,4.074-8.103,10.819-13.802,18.989-16.072,3.428-.957,6.923-1.224,10.396-.846,4.386.445,8.704,1.959,12.667,4.452,1.358.89,13.111,9.016,5.476,22.417-1.046,1.847-2.493,3.384-4.23,4.518-1.402.979-3.005,1.67-4.764,2.092-4.118,1.002-8.437.29-11.843-1.959-3.405-2.226-5.632-5.921-6.099-10.107-.267-2.337-2.359-4.007-4.719-3.762-2.338.267-4.029,2.382-3.762,4.72.757,6.7,4.363,12.644,9.884,16.295.667.446,1.38.846,2.092,1.202,4.964,2.56,10.818,3.272,16.428,1.937,2.271-.557,4.386-1.38,6.3-2.493,3.384-1.959,6.166-4.764,8.125-8.214,9.484-16.607-1.291-29.407-8.303-33.836-6.545-4.118-13.802-6.144-21.081-5.966-2.96.066-5.943.512-8.86,1.313-10.351,2.894-19.211,10.329-24.309,20.458-4.341,8.593-5.699,19.501-3.74,29.963,1.647,8.771,6.567,16.563,14.047,22.039,1.625,1.18,3.361,2.048,5.186,2.983,9.795,4.941,20.524,6.811,30.832,5.81,7.213-.69,14.247-2.783,20.636-6.211Z"/>
      <path d="M351.339,261.158l-.461-.576c-.49-.692-8.775-12.175-29.293-19.034-7.089-2.377-15.604-4.207-25.777-4.856-4.985-.331-10.374-.375-16.196-.043-16.526.894-31.468-3.876-42.116-13.486-7.968-7.19-13.083-14.985-16.195-22.838-3.127,7.853-8.242,15.648-16.196,22.838-10.633,9.61-25.618,14.394-42.13,13.486-5.792-.317-11.181-.259-16.167.043-10.173.663-18.717,2.536-25.82,4.942-20.82,7.032-29.12,18.774-29.25,18.948l-.461.576c-8.515,8.688-12.478,21.267-11.224,35.416,1.225,13.688,7.204,26.714,16.455,35.747,10.619,10.374,25.172,15.101,39.869,12.91,14.726-2.176,27.463-11.152,34.926-24.653,1.844-3.371,3.228-6.887,4.135-10.518,4.034-15.749-.692-33.168-13.025-45.2-1.268-1.254-2.363-2.306-3.444-3.084-5.677-3.962-12.334-5.605-18.861-4.74-.735.115-1.47.231-2.205.389-7.939,1.513-15.475,5.317-20.46,10.432-6.311,6.484-9.539,14.711-9.034,23.169.418,7.248,3.602,13.919,9.063,19.034.576.562,1.196,1.124,1.844,1.628,1.225.98,12.449,9.221,22.535-1.628.13-.144.288-.303.418-.461,2.536-2.867,3.746-6.657,3.343-10.663-.403-4.236-2.478-8.054-5.677-10.547-3.228-2.507-7.435-3.415-11.556-2.507-2.291.504-4.582-.951-5.101-3.242-.49-2.32.966-4.582,3.257-5.1.98-.216,1.959-.375,2.911-.447,5.634-.533,11.238,1.066,15.72,4.524,5.072,3.934,8.328,9.957,8.948,16.512.418,4.208-.288,8.314-2.031,11.93-.865,1.873-2.017,3.617-3.401,5.187-12.665,14.322-28.255,8.285-34.71,3.098-3.026-2.449-5.605-5.23-7.694-8.285-3.804-5.475-6.008-11.815-6.397-18.544-.043-.677-.058-1.369-.058-2.061-.029-10.042,4.121-19.97,11.527-27.564.375-.375.778-.778,1.181-1.138,6.729-6.325,16.498-10.835,26.44-12.175.936-.13,1.902-.216,2.838-.245,7.723-.418,15.417,1.801,21.915,6.368,1.815,1.268,3.185,2.608,4.525,3.919,14.092,13.76,19.783,33.342,15.965,51.439l37.016,25.057,37.16-25.057c-3.818-18.097,1.859-37.664,15.849-51.309,1.441-1.441,2.824-2.781,4.496-3.962,6.628-4.625,14.351-6.873,22.074-6.455.936.029,1.873.115,2.838.245,9.942,1.34,19.696,5.85,26.44,12.175.403.36.807.735,1.181,1.138,7.406,7.593,11.527,17.521,11.527,27.564,0,.692-.014,1.384-.072,2.061-.389,6.729-2.594,13.068-6.354,18.544-2.104,3.055-4.683,5.836-7.723,8.285-6.484,5.216-22.074,11.224-34.71-3.098-1.398-1.571-2.536-3.314-3.429-5.187-1.715-3.617-2.421-7.723-2.031-11.93.634-6.556,3.905-12.579,8.977-16.512,4.481-3.458,10.057-5.057,15.72-4.524.951.072,1.931.23,2.896.447,2.305.519,3.76,2.781,3.242,5.1-.504,2.291-2.781,3.761-5.101,3.242-4.107-.908-8.3,0-11.527,2.507-3.228,2.493-5.303,6.311-5.692,10.547-.389,3.977.793,7.795,3.357,10.663.13.158.288.317.418.461,10.086,10.85,21.282,2.608,22.535,1.614.648-.519,1.239-1.052,1.844-1.614,5.432-5.115,8.631-11.786,9.063-19.034.49-8.458-2.723-16.685-9.063-23.169-4.985-5.115-12.492-8.905-20.431-10.432-.735-.158-1.47-.274-2.233-.389-6.498-.864-13.155.778-18.717,4.654-1.225.864-2.291,1.916-3.429,3.026-12.449,12.161-17.189,29.595-13.184,45.344.936,3.617,2.32,7.147,4.164,10.518,7.464,13.501,20.172,22.478,34.912,24.653,14.74,2.161,29.249-2.536,39.883-12.91,18.054-17.651,24.134-51.813,5.231-71.164ZM226.517,295.177c-.375,3.876-1.758,6.931-5.158,9.755-3.386-2.824-4.769-5.879-5.144-9.755-1.354-9.74-.576-19.48.202-29.235.49-5.735,1.138-13.861,1.888-19.495.778-6.498,1.715-12.997,3.054-19.495,1.355,6.498,2.291,12.997,3.069,19.495.735,5.605,1.398,13.775,1.873,19.495.793,9.755,1.571,19.495.216,29.235Z"/>
    </g>
  </g>
</svg>