<?xml version="1.0" encoding="UTF-8"?>
<svg id="Layer_1" xmlns="http://www.w3.org/2000/svg" viewBox="0 0 1080 542.6">
  <path d="M336.4,314.2c-2.1-5.1-3.3-10.5-4.9-15.7-17.6-56.4-35.2-112.8-52.9-169.1-3.3-10.6-9.6-19.3-18.6-25.9-26.4-19.5-70.9-11.8-83.4,28.6-19.3,62.5-38.8,124.9-58.1,187.3-.9,2.9-1.1,6.3-.8,9.3,1.5,17.8,14,33.2,31,38.6,17.2,5.5,36,.2,47.5-13.6,2.1-2.6,4.2-3.6,7.5-3.6,16,.2,32,.2,48,0,3.6,0,6,.9,8.5,3.8,8.8,10.4,20.3,15.3,35.1,15.6,1.9-.2,5.1-.5,8.1-1.1,25.7-5.2,41.3-33.6,32.8-54.2h.2ZM303.4,247c-4.8,12.7-12.9,21.6-27.3,23-12.6,1.2-23.4-5-25.9-15.4-.5-1.9-.5-3.9-.8-6.2,4.3,3,7.8,6.1,11.9,8.1,6.8,3.3,13.7,2.9,19.6-2.2,5.6-4.8,8-11.1,6.1-18.4-2-7.7-7.2-12.7-15-14.5-6.9-1.6-13.2,0-18.7,4.6-10.5,8.6-14.4,21.3-10.2,33.6,3.8,11,15.1,18.4,29.3,18.6,14.9.2,26.3-6.1,34.1-18.9.9-1.4,1.6-2.9,3-5.2,3.5,11.4,6.7,22,10.2,33.4-1.9-1-3.1-1.6-4.3-2.2-11.9-6.2-24.4-7.5-36.7-2.5-13.3,5.4-24.2,1.4-34.1-6.9-11.8-10-15.3-26.7-9.5-41.1,5.9-14.5,19.9-23.3,36.1-22.6,14.9.6,28.2,10.7,32.5,25.3.9,2.9.7,6.7-.3,9.5h0ZM255.1,236.3c-.5-3.1,7.5-7.3,11.9-7.4,6.7,0,12.3,4.9,12.5,11.1.2,6-5.4,11.3-11.4,10.1-2.5-.5-5.6-1.4-7.1-3.2-2.6-3.1-5.3-6.9-5.9-10.7h0ZM284.6,172.3c4.1,13.4,8.3,26.7,12.6,40.6-5-2.4-9-4.8-13.3-6.3-4.2-1.5-8.7-2-13.7-3.2,7.4-9,12-19.3,14.4-31.1h0ZM229.3,101.3c18.2.3,35.3,12,40.5,28.7-12-12.2-25.6-18.5-41.7-18.4-16.1,0-29.7,6.4-41.8,19,6.2-18.2,23.6-29.5,43-29.2h0ZM228.5,119.6c26,0,47,21.5,47,47.7-.2,27.2-22.3,46.9-47.2,46.9s-47.3-19.4-47.5-47c-.3-26.1,21.5-47.6,47.7-47.5h0ZM232.4,222.6c-1.4,2.5-2.7,4.7-4.2,7.4-1.6-2.9-2.7-4.9-4.1-7.4h8.3ZM171.5,173.2c4.4,10.2,8.8,20.4,12.8,29.8-7.4,2.7-16,5.7-24.7,8.8,3.9-12.6,8-25.9,11.9-38.6h0ZM146.9,254.1c1.4,2.3,2.2,3.9,3.1,5.4,10.5,17.2,31.6,23.7,49.6,15.1,11-5.2,16.7-16.2,14.7-28.4-2.1-13.4-11.5-23.8-22.9-25.2-10.3-1.3-20,5.7-22.2,15.9-1.9,9.1,3.7,18.5,12.8,20.9,8,2.1,14.7-.8,20.6-6,1.1-.9,1.8-2.3,3.1-4.1,1.7,9.6-2.6,16.8-11.2,20.2-14.5,5.9-29.8,0-38.4-13.5-6.3-10-5-18.6,1.7-27.5,10.5-13.9,29.2-18.8,44.7-11.5,16,7.5,24.5,25,20.3,41.9-4.1,17-19.6,28.7-37.2,28-1.8,0-3.7-.5-5.3-1.2-14.3-6.3-28.1-5.4-41.6,2.5-.4.2-.9.3-2.2.7,3.4-11.1,6.6-21.7,10.1-33.2h.3ZM201.6,238.7c-1.1,6.2-9.2,12.2-15.5,11.7-4.7-.4-8.5-4.3-9-9.2s3.4-10.3,8.3-11.6c1.3-.3,2.6-.4,3.9-.6.3-.4.5-.7.8-1.1,3.6,2.4,7.2,4.7,10.6,7.3.8.6,1,2.4.8,3.6h0ZM327.2,340.2c-6.7,13.4-17.7,20.7-32.6,21-14.6.3-25.7-6.5-32.6-19.3-1.5-2.8-1.1-7.1-.4-10.5,3.3-16.2,21.6-26.9,36.5-21.2-3.6,1.5-7,2.6-10.2,4.2-9.7,4.8-14.1,12.9-12.1,21.7,2.2,9.5,10.6,16.4,20.1,16.5,10.1,0,18.1-6.2,20.6-16.2,2.9-11.5-1-24.5-10.1-31-11.1-7.8-22.9-6.4-34-.3-12.5,6.9-19.3,18-19.9,32.5v4.5h-19.2c-8,0-16-.3-24,.1-4.5.2-5.6-1.5-5.8-5.7-.8-20.9-18.1-36.9-38.7-36.2-10.4.4-18.2,5.1-22.6,14.6-4.6,10-5,20.1,1.6,29.4,5.1,7.3,12.8,9.4,21.3,7.6,7.7-1.6,14.2-8.8,15.5-16.5,1.4-8.2-1.7-15.1-9.6-19.7-3.8-2.2-8-3.7-12-5.5,6.9-3.4,17.6-1.8,24.9,4.3,6.9,5.7,11.8,12.8,11.5,22.2,0,2.6-.9,5.6-2.3,7.7-9.1,13.5-24.2,19.4-39.6,15.8-14.6-3.5-26.7-15.6-27.2-31.4-.9-25.8,17.5-46.9,45.8-39,24.1,6.8,41.3,1.4,54.8-20.2.3-.5.8-1,1.5-1.9,5.2,10,12.4,17.7,22.7,21.8,9.8,4,19.4,5.6,29.9,1.1,14.9-6.5,33.1-1.8,41.8,11.9,7.2,11.2,11.1,24.3,4.4,37.7h0ZM309.4,329.2c0,7.3-3.8,13.2-9.5,14.9-5.6,1.6-11.4-.7-14.6-5.8-3.2-5.1-2.5-10.5,2.3-14.1,2.6-1.9,5.7-3.5,8.7-4.6,9.3-3.1,13-.3,13,9.6h.1ZM159.4,319.4c2.4.7,4.7,1.7,6.9,2.9,5.5,3.1,7.5,7.1,6.4,12.3-1,4.8-5.4,9-10.2,9.8-5.5.9-10.6-1.3-12.9-6.3-1.4-2.9-1.9-6.3-2.8-9.4.6-9.4,3.8-11.9,12.7-9.2h0Z"/>
  <path d="M655.4,356.5h-42.3c.2-.6.2-1,.4-1.1,10-4,10.5-4.8,10.5-15.4,0-27.3-.2-54.6,0-82,0-8.7-.8-15.9-11.1-18.1h42.5c0,.3,0,.8-.3.9-10.3,4-10.8,4.6-10.8,15.6,0,27.2.2,54.3,0,81.5,0,8.8.8,16.1,11.1,18.6h0Z"/>
  <path d="M532.1,239.7v116.7h-31.1c.2-.6.3-1,.4-1.1,9.8-3.8,10.5-4.8,10.5-15.4v-84c0-28-.5-11-10.3-14.9-.4-.1-.6-.6-1.3-1.4h31.8Z"/>
  <path d="M803.8,338.8c-.4-27-.2-53.9-.2-80.9s0-12.8-11.2-18.2h42.5c0,.4,0,.9,0,.9-10.9,4.6-11.1,4.9-11.1,17v81.4c0,11.5.5,12.3,12.5,17.2h-43.5c0-.1,0-.7,0-.7,9.1-2,11.1-8,11-16.7h0Z"/>
  <path d="M450.3,356.2h-43.5c0-.2,0-.7.2-.7,10.5-4.2,10.8-4.7,10.8-16.1v-99.6h20v99.4c0,11.4.5,12.2,12.5,17.1h0Z"/>
  <path d="M929,356.3h-41.8v-.7c9.1-2,11-8.1,10.9-16.8-.4-31-.2-61.9-.2-92.9v-6.1h20v6.1c0,30.8.2,61.6,0,92.4,0,8.6,1,15.7,11.1,18.1h0Z"/>
  <path d="M246.1,395.9v52.5h-8.7v-40c-1.4,2.2-2.2,3.3-2.8,4.5-4.7,9.3-9.3,18.8-14.2,28-.8,1.4-2.7,2.9-4.2,3-1.2,0-3-1.6-3.7-3-4.6-8.8-9-17.8-13.5-26.7-.8-1.6-1.7-3.1-3.3-4.5v38.4h-8.8v-52.3c4.2,0,8.3-.2,12.3.2,1.1.1,2.4,2,3.1,3.4,4.7,9.4,9.2,18.8,14.2,29.3,1.7-3.4,3-6,4.3-8.7,3.2-6.6,6.6-13.1,9.5-19.8,1.5-3.5,3.5-4.8,7.2-4.4,2.8.3,5.6,0,8.7,0h-.1Z"/>
  <path d="M491.7,396.7c-4.1,11.9-8.3,23.9-12.4,35.8-1.4,4.1-3.2,8.1-4.2,12.2-1,4-3.6,3.9-6.7,4.1-3.3.2-4.2-1.4-5-4.1-2.8-9.6-5.8-19.1-8.8-28.6-.3-.9-.7-1.8-1.5-3.7-3.5,11.3-6.7,21.5-9.7,31.8-.9,3-1.8,4.9-5.6,4.8-3.4-.1-5.2-.9-6.4-4.4-4.9-14.8-10.2-29.5-15.4-44.3-.4-1.1-.6-2.2-.9-3.3,7.8-2.1,8.9-1.5,11.3,5.5,3.5,10,7,19.9,11.5,29.9,3.3-10.7,6.7-21.4,9.9-32.2.9-3,2.3-4.2,5.6-4.2s4.4,1.2,5.2,4c3.2,10.8,6.6,21.6,10.4,33.7,1.5-4.1,2.6-7,3.7-10,2.5-7.1,5-14.1,7.4-21.2,2.6-7.3,3.1-7.6,11.6-5.7h0Z"/>
  <path d="M718.6,356.4c-.8,0-1.5.3-2.2.3h-39c0-.7,0-1.2.3-1.2,8.3-4,8.6-4.9,4.4-13.2-7.5-14.7-15-29.3-22.5-43.9,8.2-6.3,17.1-5.5,23,2.9,4.3,6.1,7.6,12.9,11.1,19.5s7,13.2,10.2,20c3.1,6.8,7.5,12.2,14.7,15.6h0Z"/>
  <path d="M367.5,394.6c-15.6-.1-27.8,11.7-28,27-.1,15.9,11.7,27.7,27.7,27.8,15.8,0,27.9-11.6,28-27,.2-15.6-11.8-27.7-27.8-27.8h0ZM367.8,441.2c-10.4.2-18.9-8.3-19.1-18.9-.1-10.6,8.3-19.5,18.5-19.5s18.7,8.3,18.7,19.2-8,19-18.2,19.2h.1Z"/>
  <path d="M610.9,429.9c1.7-.9,2.8-1.4,4-2.1,6.2-3.8,7.4-9.8,7.1-16.5-.3-5.9-2.4-10.9-8.3-13-11-4-22.2-1.7-33.5-2.3v52.4h8.8v-16.6c7.3-1.5,13.3-1,16.6,6.4.8,1.8,2.2,3.3,3.4,5,4.5,6.5,6.4,7.1,14.8,4.8-4.2-5.9-8.4-11.7-12.8-17.9v-.2ZM606.5,422.1c-5.7.8-11.5.7-17.5,1v-18.6c5.9,0,11.5-.3,17,0,4.5.3,6.6,3.2,6.7,7.7,0,5.7-1.6,9.1-6.3,9.8h0Z"/>
  <path d="M833.8,394.6c-16.1,0-28.2,11.6-28.2,27.2s11.7,27.4,27.4,27.5c16,.1,28.3-11.7,28.3-27.2s-12-27.5-27.5-27.5ZM833.4,441.2c-10.5,0-18.8-8.7-18.7-19.3,0-10.6,8.5-19.2,18.9-19,10.5.1,18.5,8.6,18.4,19.5,0,10.4-8.5,18.9-18.6,18.8h0Z"/>
  <polygon points="160.1 440.3 160.1 448.2 122.7 448.2 122.7 396.3 159.2 396.3 159.2 404.3 131.5 404.3 131.5 418.2 156.2 418.2 156.2 426 131.7 426 131.7 440.3 160.1 440.3"/>
  <polygon points="552.9 440.1 552.9 448.2 515.6 448.2 515.6 396.2 552.1 396.2 552.1 404.2 524.6 404.2 524.6 418.1 549.2 418.1 549.2 426.3 524.5 426.3 524.5 440.1 552.9 440.1"/>
  <path d="M306.5,397.9c-9.8-1.8-19.9-1.8-30.1-2.6v53.2h8.7v-14.6c6.7-.5,12.9-.6,18.9-1.7,8.5-1.5,12.8-7.2,13.3-16.3.5-9.1-3.1-16.6-10.8-18ZM300.7,424.5c-4.9.8-9.9.7-15.5,1v-21.5c5.4.3,10.7.2,15.8.9,5,.7,7.1,4.4,7,9.4,0,5.8-2.2,9.4-7.4,10.2h.1Z"/>
  <path d="M686.5,434.4c-.3,7.2-4.9,12.6-13,14.3-10.3,2.2-19.3-.8-27.9-7.9,2-2.4,3.7-4.4,4.9-5.8,5.2,2.1,9.9,4.2,14.7,5.7,1.9.6,4.6.6,6.3-.4,2.2-1.2,5.1-3.5,5.3-5.5s-2.2-5.2-4.3-6.2c-4-2-8.5-2.7-12.8-4.1-8.7-2.8-12.5-7.7-12.1-15.5.4-7.5,5.2-12.4,13.8-14,8.5-1.5,16.1.6,23.5,5.8-1.6,2.3-3,4.3-3.8,5.5-5.8-1.2-11-2.7-16.3-3.2-3.3-.4-6.8.8-7.6,5-.8,4.4,1.9,6.4,5.6,7.5,4.1,1.3,8.3,2.3,12.4,3.8,8.2,2.9,11.6,7.5,11.2,15h0Z"/>
  <path d="M930.8,431.7c-1.3,11.9-11,18.2-23.3,17.6-11.7-.6-19.8-8.5-20.5-21-.6-10.4,0-20.9,0-32.1h8.9v25c0,3,0,6,.7,8.9,1.4,6.8,6.1,10.7,12.5,10.7s11.8-3.6,13.1-10.6c.8-4.2.6-8.6.6-12.9v-20.9h8.5c0,11.8,1,23.7-.3,35.3h-.1Z"/>
  <path d="M776.3,416.2c-5.6,7.6-8.3,15.7-7.1,25.1.3,2.2,0,4.6,0,7.1h-9.2c0-5.2.3-10.4,0-15.4-.3-3.2-1.1-6.6-2.6-9.3-5.2-9.1-10.8-17.9-16.3-26.9,7.7-2,8.8-1.6,12.4,4.4,3.6,6,7.1,11.9,11.2,18.6,4-6.5,7.6-12.4,11.1-18.4,3.7-6.3,4-6.4,12.7-4.8-4.1,6.7-7.6,13.4-12.1,19.5h0Z"/>
  <path d="M580.3,272.3c-8.3-13.6-15.7-27.7-33.8-32.5h30.9c1,11,2,21.8,2.9,32.5h0Z"/>
  <path d="M591.4,325.7c-2.6,9.6-5.2,19.2-7.9,28.8-.3.9-1.8,2.2-2.7,2.2-7.9.2-15.8,0-23.8-.3,15.4-5.9,24.8-18,34.4-30.7Z"/>
  <path d="M678.8,262.1c1.8-8,4-16.5-6.6-22.3h33.3c-9.1,7.6-18,15-26.7,22.3Z"/>
  <path d="M885.5,239.5c-14.1,7.3-24.3,16.6-31.9,29.2,1.7-8.8,3.3-17.6,5.2-26.4.2-1.1,1.7-2.7,2.7-2.7,7.5-.2,15.1-.1,24.1-.1h0Z"/>
  <path d="M405.5,239.4c-14.1,7.2-24.3,16.7-32,29.2,1.7-8.8,3.3-17.5,5.2-26.3.3-1.2,2.3-2.7,3.6-2.8,7.3-.3,14.5-.1,23.2-.1h0Z"/>
  <path d="M962.3,268.3c-7.7-12.1-17-22.3-30.2-28.9,7.4,0,14.8-.1,22.2.1,1.1,0,2.8,1.7,3.1,2.9,1.8,8.6,3.3,17.3,5,25.9h0Z"/>
  <path d="M482,268.5c-7.5-12.3-16.9-22.4-30-29h22.6c.9,0,2.4,1.3,2.6,2.2,1.8,8.9,3.4,17.8,4.8,26.8Z"/>
  <path d="M565.4,281.8v32.4c-4.3-7.5-9.9-13.3-18.9-16.2,9-2.9,14.7-8.5,18.9-16.2h0Z"/>
  <path d="M252.4,301.5c-8.6-5.7-16.6-11-24.2-15.9-7.8,5.1-16,10.4-23.2,15.2,2,9.8,4,19.5,6.2,30.1h36c-1.8-11,1.2-20.8,5.2-29.3h0ZM241.2,307.6c-.8,4.9-2,9.7-3.2,15.1h-19.6c-1.3-6.2-2.5-12-3.7-17.9,4.5-3,9-6,13.5-8.9,3.8,2.5,7.7,4.8,11.2,7.5,1.1.8,2,2.9,1.8,4.3h0Z"/>
  <path d="M228.4,131.4c-19.6-.1-35.7,15.9-35.7,35.5s15.8,35.4,35.1,35.5c19.9.1,35.8-15.5,35.9-35.2,0-19.8-15.6-35.7-35.3-35.8h0ZM228.3,194.4c-15.2,0-27.8-12.5-27.6-27.7.2-15,12.7-27.3,27.6-27.2,15.1.1,27.3,12.5,27.3,27.5s-12.2,27.3-27.3,27.4Z"/>
  <path d="M228.7,148.7c-9.9-.3-18.2,7.6-18.6,17.7-.4,9.9,7.5,18.3,17.5,18.8s18.6-7.7,18.9-17.9c.3-9.8-7.9-18.3-17.8-18.6h0ZM228,177.1c-5.6-.2-10-4.9-9.9-10.4.1-5.4,4.5-9.7,10-9.7s10.3,4.6,10.2,10.1-4.9,10.2-10.3,10.1h0Z"/>
</svg>