<svg width="256" height="256" viewBox="0 0 256 256" fill="none" xmlns="http://www.w3.org/2000/svg">
<circle cx="128" cy="128" r="128" fill="black"/>
<path d="M146.451 50.0371C136.891 54.6074 131.362 60.9239 128.565 65.0742C123.6 57.3259 115.143 52.3621 110.389 50.0371H146.451Z" fill="white"/>
<path d="M110.442 50.0371C120.002 45.4668 125.531 39.1503 128.328 35C133.292 42.7483 141.75 47.7121 146.504 50.0371H110.442Z" fill="white"/>
<path d="M153.438 65.6128C144.232 68.1732 136.076 73.9912 131.94 82.1336C131.625 82.6852 129.957 85.7848 128.46 90.407C126.962 85.7842 125.295 82.6852 124.98 82.1336C121.105 74.4903 113.528 68.5153 104.178 65.7573C103.955 65.6919 103.731 65.6258 103.508 65.5733L108.341 54.6605C113.318 57.1164 122.669 62.7109 126.122 71.2603L128.408 76.8678L130.785 71.2993C130.837 71.1943 135.315 60.9906 148.58 54.621L153.438 65.6134L153.438 65.6128Z" fill="white"/>
<path d="M126.004 104.997V105.181C125.965 112.64 123.522 120.993 115.537 128.216C110.258 132.983 102.72 135.347 94.3278 134.888C91.6618 134.743 89.1404 134.704 86.737 134.783C81.1425 134.953 76.2442 135.689 71.9889 136.765L76.7168 126.075C80.4859 128.097 84.6356 129.345 88.9038 129.739C94.9974 130.317 101.34 129.214 107.171 126.272C108.157 125.773 109.168 125.261 110.231 124.499C114.539 121.334 117.454 116.738 118.426 111.564C119.582 105.391 118.768 98.9565 116.22 93.8871C113.213 87.9121 107.986 83.5253 101.879 81.818C100.146 81.3454 98.412 81.0823 96.6522 81.0434C92.358 80.9248 88.0767 82.133 84.2026 84.563C80.0659 87.1765 73.7228 94.7277 79.3043 104.524C80.4735 106.56 82.1148 108.214 84.1105 109.37C85.2403 110.027 86.4744 110.513 87.8142 110.841C91.1238 111.628 94.5909 111.208 97.5194 109.698C97.9394 109.488 98.3465 109.252 98.7406 108.989C102.011 106.835 104.138 103.329 104.585 99.3759C104.742 97.9966 103.744 96.7495 102.365 96.5914C100.96 96.4468 99.7258 97.432 99.5677 98.8107C99.2922 101.28 97.979 103.46 95.9696 104.773C93.9732 106.1 91.4258 106.52 88.9959 105.929C87.9587 105.679 87.0131 105.272 86.1854 104.695C85.1477 104.025 84.3076 103.119 83.6905 102.029C79.1857 94.1236 86.1069 89.3297 86.8951 88.8177C89.246 87.3334 91.807 86.4408 94.3939 86.1783C96.4427 85.9547 98.5176 86.1128 100.527 86.6774C105.334 88.0171 109.313 91.3792 111.716 96.1589C113.765 100.191 114.408 105.615 113.476 110.644C112.754 114.492 110.481 118.065 107.172 120.481C106.542 120.954 105.754 121.348 104.808 121.82C100.409 124.04 95.6546 125.025 91.0058 124.841C86.7116 124.683 82.5088 123.541 78.7662 121.466C76.2708 120.087 73.9723 118.301 72.0025 116.121C65.896 109.384 63.3091 100.572 64.9244 91.9302C66.5267 83.3017 71.9241 76.079 79.7514 72.1394C86.042 68.9743 93.8688 68.2917 101.46 70.222C101.893 70.3271 102.326 70.4456 102.759 70.5766C110.784 72.9535 117.258 78.0099 120.502 84.458L120.58 84.589C120.935 85.2066 126.004 94.1366 126.004 104.997Z" fill="white"/>
<path d="M180.216 126.089L184.957 136.779C180.702 135.702 175.79 134.967 170.196 134.783C167.792 134.717 165.258 134.743 162.592 134.888C154.201 135.36 146.675 132.983 141.396 128.216C121.684 110.421 135.735 85.6396 136.34 84.589L136.419 84.458C140.03 77.3008 147.305 72.2579 155.461 70.1695C162.658 68.3313 170.537 68.7908 177.169 72.1394C184.996 76.079 190.407 83.3023 192.009 91.9302C193.611 100.572 191.037 109.384 184.917 116.121C182.948 118.301 180.662 120.087 178.167 121.453C174.424 123.528 170.222 124.684 165.914 124.828C161.252 124.998 156.458 124.014 152.02 121.768C151.179 121.348 150.391 120.954 149.682 120.428C146.451 118.064 144.179 114.492 143.457 110.644C142.511 105.615 143.168 100.191 145.203 96.1589C147.606 91.3786 151.586 88.0165 156.405 86.6774C158.428 86.1128 160.49 85.9553 162.538 86.1783C165.126 86.4408 167.673 87.334 170.011 88.8047C170.812 89.3297 177.746 94.1236 173.242 102.029C172.625 103.119 171.771 104.026 170.746 104.695C169.919 105.272 168.974 105.68 167.936 105.929C165.506 106.52 162.958 106.1 160.949 104.773C158.94 103.46 157.627 101.28 157.351 98.8107C157.194 97.432 155.959 96.4468 154.567 96.5914C153.188 96.7489 152.19 97.9966 152.348 99.3759C152.794 103.329 154.922 106.835 158.179 108.989C158.572 109.252 158.993 109.488 159.413 109.698C162.341 111.208 165.795 111.628 169.104 110.841C170.444 110.512 171.692 110.027 172.821 109.37C174.818 108.214 176.459 106.56 177.614 104.524C183.209 94.7272 176.853 87.1759 172.716 84.563C168.855 82.1336 164.574 80.9384 160.28 81.0434C158.533 81.0823 156.773 81.3454 155.053 81.818C148.946 83.5253 143.719 87.9115 140.712 93.8871C138.151 98.9565 137.35 105.392 138.505 111.564C139.477 116.738 142.379 121.335 146.792 124.565C147.751 125.261 148.775 125.774 149.852 126.325C155.63 129.24 161.96 130.343 168.041 129.753C172.296 129.346 176.446 128.111 180.215 126.089H180.216Z" fill="white"/>
<path d="M205.178 154.376L204.906 154.036C204.617 153.628 199.729 146.853 187.624 142.807C183.442 141.405 178.419 140.325 172.418 139.942C169.477 139.747 166.297 139.721 162.863 139.917C153.113 140.444 144.298 137.63 138.017 131.961C133.316 127.719 130.298 123.121 128.463 118.488C126.618 123.121 123.6 127.719 118.908 131.961C112.635 137.63 103.795 140.453 94.0534 139.917C90.6365 139.73 87.4573 139.764 84.5158 139.942C78.5143 140.333 73.4738 141.438 69.2834 142.858C57.0008 147.006 52.1042 153.933 52.0276 154.036L51.7556 154.376C46.7322 159.501 44.3943 166.922 45.1341 175.269C45.8567 183.344 49.384 191.029 54.8416 196.358C61.1062 202.478 69.6917 205.267 78.3621 203.974C87.0496 202.691 94.5637 197.395 98.9665 189.43C100.054 187.442 100.871 185.367 101.406 183.225C103.786 173.934 100.998 163.658 93.7219 156.56C92.9738 155.82 92.3278 155.199 91.6901 154.74C88.341 152.403 84.4137 151.434 80.5632 151.944C80.1296 152.012 79.6959 152.08 79.2623 152.174C74.5788 153.066 70.1329 155.31 67.1921 158.328C63.4689 162.153 61.5646 167.007 61.8625 171.996C62.1091 176.272 63.9875 180.208 67.2092 183.225C67.549 183.557 67.9148 183.888 68.297 184.186C69.0197 184.764 75.6413 189.626 81.5914 183.225C81.6681 183.14 81.7613 183.047 81.838 182.953C83.3341 181.262 84.048 179.026 83.8102 176.663C83.5725 174.164 82.3483 171.911 80.4611 170.441C78.5568 168.962 76.0749 168.426 73.6437 168.962C72.2921 169.259 70.9406 168.401 70.6344 167.049C70.3453 165.68 71.2043 164.346 72.5559 164.04C73.134 163.913 73.7115 163.819 74.2732 163.777C77.5969 163.462 80.903 164.405 83.5471 166.445C86.5393 168.766 88.4602 172.32 88.8259 176.187C89.0725 178.669 88.656 181.091 87.6277 183.225C87.1174 184.33 86.4378 185.359 85.6214 186.285C78.1497 194.734 68.9525 191.172 65.1444 188.112C63.3592 186.668 61.8377 185.027 60.6053 183.225C58.3612 179.995 57.061 176.255 56.8315 172.285C56.8061 171.885 56.7973 171.477 56.7973 171.069C56.7801 165.145 59.2284 159.288 63.5975 154.808C63.8188 154.586 64.0565 154.349 64.2943 154.136C68.264 150.405 74.0272 147.744 79.8924 146.954C80.4446 146.877 81.0145 146.826 81.5667 146.809C86.1228 146.563 90.6618 147.872 94.4953 150.566C95.566 151.314 96.3743 152.105 97.1648 152.878C105.478 160.996 108.836 172.548 106.583 183.224L128.421 198.006L150.343 183.224C148.091 172.548 151.44 161.004 159.693 152.955C160.543 152.105 161.359 151.314 162.345 150.617C166.256 147.889 170.812 146.563 175.368 146.809C175.92 146.826 176.473 146.877 177.042 146.954C182.907 147.744 188.662 150.405 192.64 154.136C192.878 154.349 193.116 154.57 193.337 154.808C197.706 159.287 200.137 165.144 200.137 171.069C200.137 171.477 200.129 171.885 200.095 172.285C199.865 176.255 198.564 179.994 196.346 183.225C195.105 185.027 193.584 186.668 191.79 188.112C187.965 191.19 178.768 194.734 171.313 186.285C170.488 185.358 169.817 184.33 169.29 183.225C168.278 181.091 167.862 178.669 168.092 176.187C168.466 172.319 170.396 168.766 173.388 166.445C176.032 164.405 179.321 163.462 182.662 163.777C183.223 163.819 183.801 163.912 184.37 164.04C185.73 164.346 186.589 165.681 186.283 167.049C185.986 168.401 184.642 169.268 183.274 168.962C180.851 168.426 178.377 168.962 176.473 170.441C174.569 171.911 173.345 174.164 173.115 176.663C172.886 179.009 173.583 181.261 175.096 182.953C175.173 183.047 175.266 183.14 175.342 183.225C181.293 189.626 187.898 184.764 188.637 184.177C189.019 183.871 189.368 183.557 189.725 183.225C192.929 180.208 194.817 176.272 195.071 171.996C195.36 167.007 193.465 162.153 189.725 158.328C186.784 155.31 182.355 153.074 177.672 152.174C177.238 152.08 176.804 152.012 176.354 151.944C172.521 151.434 168.593 152.403 165.312 154.69C164.59 155.199 163.961 155.82 163.289 156.475C155.945 163.649 153.149 173.934 155.511 183.225C156.064 185.359 156.88 187.442 157.968 189.43C162.371 197.395 169.868 202.691 178.564 203.974C187.26 205.249 195.819 202.478 202.093 196.358C212.744 185.945 216.331 165.791 205.179 154.375L205.178 154.376ZM131.54 174.445C131.318 176.732 130.503 178.534 128.497 180.2C126.499 178.534 125.683 176.732 125.462 174.445C124.663 168.699 125.122 162.953 125.581 157.198C125.87 153.815 126.253 149.021 126.695 145.697C127.154 141.864 127.707 138.03 128.497 134.196C129.296 138.03 129.848 141.864 130.307 145.697C130.741 149.004 131.132 153.824 131.412 157.198C131.88 162.953 132.339 168.699 131.54 174.445Z" fill="white"/>
</svg>
