<svg width="765" height="288" viewBox="0 0 765 288" fill="none" xmlns="http://www.w3.org/2000/svg">
<path d="M355.917 63.374L317.243 162.841H333.226L341.244 140.722H381.904L389.882 162.841H405.723L367.191 63.374H355.917ZM345.951 127.735L361.624 84.495L377.219 127.735H345.951Z" fill="white"/>
<path d="M389.168 76.36H421.704V162.841H436.404V76.36H468.799V63.374H389.168V76.36Z" fill="white"/>
<path d="M474.363 162.841H540.153V149.855H488.921V118.459H535.87V105.472H488.921V76.36H540.153V63.374H474.363V162.841Z" fill="white"/>
<path d="M628.915 63.374H609.505L564.982 110.03V63.374H550.425V162.841H564.982V128.53L580.519 112.696L612.218 162.841H629.199L591.006 102.008L628.915 63.374Z" fill="white"/>
<path d="M679.717 63.374H665.162V162.841H679.717V63.374Z" fill="white"/>
<path d="M685.283 63.374V76.36H717.821V162.841H732.519V76.36H764.913V63.374H685.283Z" fill="white"/>
<path d="M323.445 238.051V188.397H355.931V192.6H328.076V210.695H353.08V214.898H328.076V233.848H355.931V238.051H323.445Z" fill="white"/>
<path d="M362.057 238.051V202.93H366.616V211.978H365.69C366.118 210.316 366.688 208.891 367.4 207.703C368.112 206.517 368.967 205.53 369.965 204.747C370.961 203.963 372.042 203.382 373.206 203.002C374.37 202.623 375.592 202.432 376.876 202.432C378.964 202.432 380.805 202.824 382.396 203.608C383.987 204.392 385.282 205.591 386.28 207.205C387.276 208.82 387.964 210.886 388.346 213.403L385.853 213.545C386.517 211.123 387.384 209.093 388.453 207.454C389.521 205.815 390.862 204.569 392.477 203.714C394.091 202.859 395.992 202.431 398.177 202.431C401.026 202.431 403.306 203.085 405.015 204.39C406.725 205.696 407.959 207.442 408.72 209.626C409.478 211.811 409.86 214.305 409.86 217.106V238.051H405.371V218.104C405.371 215.682 405.109 213.592 404.587 211.835C404.064 210.078 403.209 208.725 402.023 207.774C400.834 206.825 399.22 206.349 397.178 206.349C395.421 206.349 393.866 206.812 392.512 207.739C391.158 208.665 390.113 210.078 389.377 211.978C388.64 213.878 388.272 216.252 388.272 219.101V238.051H383.713V217.462C383.713 213.711 383.036 210.92 381.683 209.092C380.329 207.264 378.323 206.349 375.663 206.349C373.906 206.349 372.338 206.825 370.961 207.774C369.583 208.725 368.515 210.173 367.756 212.12C366.996 214.068 366.616 216.537 366.616 219.529V238.051H362.057Z" fill="white"/>
<path d="M418.691 252.584V202.93H423.18V213.972L421.755 212.974C422.421 210.742 423.394 208.842 424.676 207.275C425.958 205.708 427.525 204.509 429.378 203.677C431.23 202.847 433.295 202.43 435.575 202.43C438.71 202.43 441.476 203.226 443.875 204.816C446.273 206.408 448.148 208.556 449.502 211.263C450.856 213.97 451.532 217.058 451.532 220.524C451.532 224.085 450.82 227.232 449.395 229.963C447.971 232.695 446.059 234.808 443.661 236.303C441.262 237.799 438.567 238.547 435.574 238.547C433.295 238.547 431.216 238.107 429.341 237.229C427.464 236.35 425.898 235.127 424.64 233.56C423.381 231.993 422.49 230.212 421.968 228.217L423.18 227.077V252.581H418.691V252.584ZM434.863 234.417C437.237 234.417 439.339 233.824 441.168 232.636C442.996 231.45 444.432 229.811 445.478 227.721C446.522 225.631 447.045 223.232 447.045 220.526C447.045 217.82 446.522 215.421 445.478 213.33C444.433 211.241 442.996 209.59 441.168 208.379C439.339 207.168 437.237 206.562 434.863 206.562C432.489 206.562 430.398 207.168 428.594 208.379C426.787 209.59 425.376 211.241 424.354 213.33C423.332 215.421 422.823 217.819 422.823 220.526C422.823 223.233 423.332 225.632 424.354 227.721C425.376 229.811 426.787 231.45 428.594 232.636C430.398 233.824 432.487 234.417 434.863 234.417Z" fill="white"/>
<path d="M474.329 238.549C471.098 238.549 468.212 237.777 465.673 236.234C463.132 234.691 461.149 232.554 459.725 229.823C458.3 227.093 457.588 223.97 457.588 220.455C457.588 216.94 458.287 213.83 459.689 211.122C461.09 208.415 463.062 206.29 465.603 204.746C468.143 203.203 471.053 202.431 474.33 202.431C477.607 202.431 480.492 203.203 482.985 204.746C485.478 206.29 487.448 208.415 488.898 211.122C490.346 213.829 491.071 216.94 491.071 220.455C491.071 223.97 490.346 227.093 488.898 229.823C487.449 232.554 485.466 234.692 482.95 236.234C480.431 237.778 477.559 238.549 474.33 238.549H474.329ZM474.329 234.56C476.797 234.56 478.947 233.967 480.776 232.779C482.604 231.592 484.017 229.942 485.014 227.827C486.012 225.715 486.51 223.257 486.51 220.454C486.51 217.605 486.012 215.123 485.014 213.01C484.016 210.897 482.604 209.259 480.776 208.094C478.947 206.931 476.797 206.349 474.329 206.349C471.861 206.349 469.698 206.943 467.845 208.13C465.993 209.318 464.557 210.956 463.535 213.045C462.513 215.136 462.004 217.605 462.004 220.454C462.004 223.257 462.513 225.715 463.535 227.827C464.557 229.941 465.993 231.592 467.845 232.779C469.698 233.967 471.858 234.56 474.329 234.56Z" fill="white"/>
<path d="M504.821 238.051L494.634 202.93H499.407L507.243 231.355L516.718 202.93H520.849L530.395 231.212L538.232 202.93H543.005L532.746 238.051H528.471L518.854 209.128L509.166 238.051H504.821Z" fill="white"/>
<path d="M562.88 238.549C560.267 238.549 557.952 238.097 555.935 237.195C553.916 236.293 552.241 235.034 550.912 233.419C549.582 231.805 548.572 229.905 547.884 227.72C547.196 225.535 546.851 223.208 546.851 220.738C546.851 218.221 547.183 215.858 547.849 213.65C548.513 211.442 549.5 209.495 550.805 207.808C552.111 206.123 553.726 204.805 555.65 203.854C557.573 202.905 559.792 202.429 562.311 202.429C564.97 202.429 567.263 202.892 569.186 203.819C571.109 204.745 572.676 206.004 573.887 207.594C575.099 209.186 576 210.932 576.594 212.83C577.188 214.73 577.485 216.653 577.485 218.6C577.485 218.981 577.472 219.479 577.45 220.096C577.425 220.714 577.366 221.236 577.271 221.663H551.268C551.364 225.7 552.444 228.834 554.51 231.067C556.576 233.3 559.366 234.415 562.881 234.415C565.113 234.415 567.023 234.071 568.616 233.382C570.206 232.694 571.737 231.542 573.21 229.927L576.415 232.776C575.085 234.154 573.732 235.258 572.356 236.088C570.977 236.92 569.516 237.537 567.974 237.94C566.43 238.343 564.732 238.546 562.88 238.546V238.549ZM572.996 219.386C573.09 219.007 573.138 218.615 573.138 218.211V217.035C573.138 215.8 572.935 214.542 572.533 213.259C572.129 211.977 571.5 210.813 570.645 209.769C569.791 208.725 568.674 207.869 567.298 207.204C565.92 206.54 564.281 206.207 562.382 206.207C560.198 206.207 558.286 206.754 556.648 207.846C555.009 208.939 553.738 210.387 552.836 212.191C551.934 213.997 551.412 216.038 551.269 218.318H574.493L572.997 219.386H572.996Z" fill="white"/>
<path d="M585.035 238.051V202.93H589.594V212.263L588.454 212.476C588.834 210.292 589.666 208.464 590.947 206.991C592.23 205.519 593.726 204.391 595.436 203.607C597.146 202.823 598.785 202.431 600.351 202.431C601.301 202.431 602.263 202.538 603.237 202.752C604.209 202.965 605.148 203.311 606.051 203.785L603.842 207.846C603.224 207.561 602.536 207.324 601.776 207.133C601.016 206.944 600.28 206.848 599.567 206.848C598.332 206.848 597.098 207.087 595.864 207.561C594.629 208.036 593.5 208.784 592.48 209.805C591.458 210.827 590.71 212.191 590.236 213.902C590.046 214.614 589.891 215.493 589.773 216.537C589.653 217.582 589.594 219.03 589.594 220.883V238.052H585.035V238.051Z" fill="white"/>
<path d="M621.509 238.549C619.182 238.549 617.079 238.193 615.204 237.48C613.329 236.767 611.714 235.806 610.361 234.595C609.008 233.384 607.949 232.043 607.191 230.57L610.396 228.006C611.298 230.001 612.711 231.628 614.634 232.886C616.557 234.145 618.848 234.774 621.509 234.774C624.026 234.774 626.044 234.216 627.565 233.1C629.083 231.984 629.844 230.453 629.844 228.504C629.844 226.89 629.381 225.643 628.454 224.764C627.528 223.886 626.341 223.186 624.893 222.663C623.444 222.141 621.865 221.69 620.155 221.309C618.825 220.978 617.494 220.586 616.166 220.134C614.836 219.683 613.637 219.113 612.568 218.424C611.5 217.737 610.656 216.846 610.039 215.753C609.421 214.661 609.113 213.307 609.113 211.693C609.113 208.939 610.192 206.706 612.354 204.996C614.516 203.286 617.329 202.432 620.797 202.432C623.409 202.432 625.795 202.991 627.956 204.106C630.116 205.222 631.79 206.919 632.978 209.2L630.058 211.337C629.06 209.485 627.742 208.144 626.104 207.312C624.465 206.482 622.648 206.065 620.654 206.065C618.517 206.065 616.747 206.541 615.346 207.49C613.945 208.44 613.244 209.723 613.244 211.337C613.244 212.525 613.576 213.486 614.242 214.222C614.906 214.959 615.856 215.564 617.091 216.039C618.325 216.515 619.774 216.942 621.436 217.322C622.956 217.655 624.464 218.059 625.96 218.533C627.457 219.009 628.833 219.614 630.093 220.35C631.351 221.087 632.349 222.072 633.084 223.307C633.82 224.542 634.189 226.109 634.189 228.009C634.189 230.146 633.666 232.01 632.622 233.601C631.577 235.193 630.105 236.415 628.205 237.27C626.305 238.125 624.074 238.553 621.509 238.553V238.549Z" fill="white"/>
<path d="M671.803 238.051V219.03L654.279 188.397H659.55L674.012 214.328L688.616 188.397H693.959L676.505 219.03V238.051H671.803Z" fill="white"/>
<path d="M708.207 238.549C704.976 238.549 702.09 237.777 699.551 236.234C697.01 234.691 695.027 232.554 693.603 229.823C692.178 227.093 691.466 223.97 691.466 220.455C691.466 216.94 692.165 213.83 693.567 211.122C694.968 208.415 696.94 206.29 699.481 204.746C702.021 203.203 704.931 202.431 708.208 202.431C711.485 202.431 714.37 203.203 716.863 204.746C719.356 206.29 721.326 208.415 722.776 211.122C724.224 213.829 724.949 216.94 724.949 220.455C724.949 223.97 724.224 227.093 722.776 229.823C721.327 232.554 719.344 234.692 716.828 236.234C714.309 237.778 711.437 238.549 708.208 238.549H708.207ZM708.207 234.56C710.675 234.56 712.825 233.967 714.654 232.779C716.482 231.592 717.895 229.942 718.892 227.827C719.89 225.715 720.388 223.257 720.388 220.454C720.388 217.605 719.89 215.123 718.892 213.01C717.894 210.897 716.482 209.259 714.654 208.094C712.825 206.931 710.675 206.349 708.207 206.349C705.739 206.349 703.576 206.943 701.723 208.13C699.871 209.318 698.435 210.956 697.413 213.045C696.391 215.136 695.882 217.605 695.882 220.454C695.882 223.257 696.391 225.715 697.413 227.827C698.435 229.941 699.871 231.592 701.723 232.779C703.576 233.967 705.736 234.56 708.207 234.56Z" fill="white"/>
<path d="M743.756 238.549C741.285 238.549 739.148 238.039 737.344 237.017C735.539 235.996 734.15 234.476 733.176 232.457C732.202 230.439 731.715 227.887 731.715 224.799V202.929H736.204V223.232C736.204 225.797 736.536 227.923 737.202 229.608C737.866 231.294 738.84 232.553 740.123 233.384C741.405 234.215 743.019 234.631 744.966 234.631C747.056 234.631 748.837 234.132 750.31 233.135C751.78 232.138 752.91 230.618 753.693 228.576C754.477 226.534 754.869 223.922 754.869 220.739V202.929H759.356V238.05H754.869V229.857H755.937C755.035 232.755 753.503 234.927 751.343 236.375C749.18 237.824 746.652 238.548 743.756 238.548V238.549Z" fill="white"/>
<path d="M172.793 25.9921C156.588 33.7391 147.216 44.4461 142.474 51.4811C134.059 38.3471 119.723 29.9331 111.665 25.9921H172.793Z" fill="white"/>
<path d="M111.754 25.9921C127.959 18.245 137.331 7.53805 142.073 0.503052C150.488 13.6371 164.824 22.0511 172.882 25.9921H111.754Z" fill="white"/>
<path d="M184.636 52.3941C169.031 56.7341 155.207 66.5961 148.195 80.3981C147.661 81.3331 144.834 86.5871 142.296 94.4221C139.758 86.5861 136.931 81.3331 136.397 80.3981C129.83 67.4421 116.986 57.3141 101.136 52.6391C100.758 52.5281 100.379 52.4161 100.001 52.3271L108.193 33.8291C116.63 37.9921 132.48 47.4751 138.334 61.9671L142.208 71.4721L146.237 62.0331C146.326 61.8551 153.917 44.5591 176.401 33.7621L184.637 52.3951L184.636 52.3941Z" fill="white"/>
<path d="M138.134 119.153V119.465C138.067 132.109 133.926 146.267 120.392 158.511C111.443 166.591 98.665 170.599 84.44 169.82C79.921 169.575 75.647 169.508 71.573 169.642C62.09 169.931 53.787 171.178 46.574 173.003L54.588 154.882C60.977 158.31 68.011 160.425 75.246 161.093C85.575 162.072 96.327 160.203 106.211 155.216C107.881 154.37 109.595 153.502 111.398 152.211C118.7 146.846 123.641 139.055 125.289 130.284C127.248 119.821 125.868 108.914 121.549 100.321C116.452 90.193 107.592 82.757 97.24 79.863C94.302 79.062 91.363 78.616 88.38 78.55C81.101 78.349 73.844 80.397 67.277 84.516C60.265 88.946 49.513 101.746 58.974 118.352C60.956 121.803 63.738 124.607 67.121 126.566C69.036 127.679 71.128 128.503 73.399 129.059C79.009 130.394 84.886 129.682 89.85 127.122C90.562 126.766 91.252 126.365 91.92 125.92C97.463 122.269 101.069 116.325 101.826 109.625C102.093 107.287 100.401 105.173 98.064 104.905C95.682 104.66 93.59 106.33 93.322 108.667C92.855 112.852 90.629 116.547 87.223 118.774C83.839 121.022 79.521 121.735 75.402 120.733C73.644 120.31 72.041 119.62 70.638 118.641C68.879 117.506 67.455 115.97 66.409 114.123C58.773 100.722 70.505 92.596 71.841 91.728C75.826 89.212 80.167 87.699 84.552 87.254C88.025 86.875 91.542 87.143 94.948 88.1C103.096 90.371 109.841 96.07 113.914 104.172C117.387 111.006 118.478 120.2 116.897 128.726C115.673 135.248 111.821 141.304 106.212 145.399C105.144 146.201 103.808 146.869 102.205 147.67C94.748 151.432 86.689 153.102 78.809 152.79C71.53 152.523 64.406 150.586 58.062 147.069C53.832 144.732 49.936 141.704 46.597 138.009C36.246 126.589 31.861 111.652 34.599 97.004C37.315 82.378 46.464 70.135 59.732 63.457C70.395 58.092 83.662 56.935 96.529 60.207C97.263 60.385 97.998 60.586 98.732 60.808C112.334 64.837 123.308 73.408 128.807 84.338L128.94 84.56C129.541 85.607 138.134 100.744 138.134 119.153Z" fill="white"/>
<path d="M230.027 154.905L238.063 173.026C230.85 171.2 222.525 169.954 213.042 169.642C208.968 169.531 204.672 169.575 200.153 169.82C185.929 170.621 173.173 166.592 164.224 158.511C130.81 128.347 154.629 86.3411 155.653 84.5601L155.787 84.3381C161.909 72.2061 174.241 63.6581 188.065 60.1181C200.264 57.0021 213.62 57.7811 224.862 63.4571C238.129 70.1351 247.301 82.3791 250.017 97.0041C252.733 111.652 248.37 126.589 237.996 138.009C234.657 141.704 230.783 144.732 226.554 147.047C220.209 150.564 213.086 152.524 205.784 152.768C197.881 153.057 189.756 151.388 182.232 147.581C180.807 146.869 179.471 146.201 178.269 145.31C172.792 141.303 168.941 135.248 167.717 128.726C166.114 120.2 167.227 111.006 170.677 104.172C174.751 96.0691 181.496 90.3701 189.666 88.1001C193.094 87.1431 196.589 86.8761 200.062 87.2541C204.448 87.6991 208.766 89.2131 212.729 91.7061C214.087 92.5961 225.84 100.722 218.205 114.123C217.159 115.97 215.712 117.507 213.975 118.641C212.573 119.62 210.97 120.311 209.211 120.733C205.093 121.735 200.774 121.023 197.368 118.774C193.963 116.548 191.736 112.853 191.269 108.667C191.002 106.33 188.91 104.66 186.55 104.905C184.212 105.172 182.521 107.287 182.788 109.625C183.545 116.325 187.151 122.269 192.672 125.92C193.339 126.366 194.052 126.766 194.764 127.122C199.728 129.682 205.582 130.394 211.192 129.059C213.463 128.502 215.578 127.679 217.492 126.566C220.876 124.607 223.658 121.802 225.617 118.352C235.101 101.745 224.326 88.9451 217.314 84.5161C210.769 80.3981 203.512 78.3721 196.233 78.5501C193.273 78.6161 190.29 79.0621 187.373 79.8631C177.022 82.7571 168.162 90.1921 163.064 100.321C158.723 108.914 157.365 119.822 159.324 130.284C160.971 139.055 165.891 146.847 173.371 152.323C174.996 153.503 176.732 154.371 178.557 155.306C188.352 160.247 199.081 162.117 209.389 161.116C216.602 160.426 223.636 158.333 230.025 154.905H230.027Z" fill="white"/>
<path d="M272.339 202.854L271.878 202.278C271.388 201.586 263.103 190.103 242.585 183.244C235.496 180.867 226.981 179.037 216.808 178.388C211.823 178.057 206.434 178.013 200.612 178.345C184.086 179.239 169.144 174.469 158.496 164.859C150.528 157.669 145.413 149.874 142.301 142.021C139.174 149.874 134.059 157.669 126.105 164.859C115.472 174.469 100.487 179.253 83.9749 178.345C78.1829 178.028 72.7939 178.086 67.8079 178.388C57.6349 179.051 49.0909 180.924 41.9879 183.33C21.1679 190.362 12.8679 202.104 12.7379 202.278L12.2769 202.854C3.76192 211.542 -0.201082 224.121 1.05292 238.27C2.27792 251.958 8.25692 264.984 17.5079 274.017C28.1269 284.391 42.6799 289.118 57.3769 286.927C72.1029 284.751 84.8399 275.775 92.3029 262.274C94.1469 258.903 95.5309 255.387 96.4379 251.756C100.472 236.007 95.7459 218.588 83.4129 206.556C82.1449 205.302 81.0499 204.25 79.9689 203.472C74.2919 199.51 67.6349 197.867 61.1079 198.732C60.3729 198.847 59.6379 198.963 58.9029 199.121C50.9639 200.634 43.4279 204.438 38.4429 209.553C32.1319 216.037 28.9039 224.264 29.4089 232.722C29.8269 239.97 33.0109 246.641 38.4719 251.756C39.0479 252.318 39.6679 252.88 40.3159 253.384C41.5409 254.364 52.7649 262.605 62.8509 251.756C62.9809 251.612 63.1389 251.453 63.2689 251.295C65.8049 248.428 67.0149 244.638 66.6119 240.632C66.2089 236.396 64.1339 232.578 60.9349 230.085C57.7069 227.578 53.4999 226.67 49.3789 227.578C47.0879 228.082 44.7969 226.627 44.2779 224.336C43.7879 222.016 45.2439 219.754 47.5349 219.236C48.5149 219.02 49.4939 218.861 50.4459 218.789C56.0799 218.256 61.6839 219.855 66.1659 223.313C71.2379 227.247 74.4939 233.27 75.1139 239.825C75.5319 244.033 74.8259 248.139 73.0829 251.755C72.2179 253.628 71.0659 255.372 69.6819 256.942C57.0169 271.264 41.4269 265.227 34.9719 260.04C31.9459 257.591 29.3669 254.81 27.2779 251.755C23.4739 246.28 21.2699 239.94 20.8809 233.211C20.8379 232.534 20.8229 231.842 20.8229 231.15C20.7939 221.108 24.9439 211.18 32.3499 203.586C32.7249 203.211 33.1279 202.808 33.5309 202.448C40.2599 196.123 50.0289 191.613 59.9709 190.273C60.9069 190.143 61.8729 190.057 62.8089 190.028C70.5319 189.61 78.2259 191.829 84.7239 196.396C86.5389 197.664 87.9089 199.004 89.2489 200.315C103.341 214.075 109.032 233.657 105.214 251.754L142.23 276.811L179.39 251.754C175.572 233.657 181.249 214.09 195.239 200.445C196.68 199.004 198.063 197.664 199.735 196.483C206.363 191.858 214.086 189.61 221.809 190.028C222.745 190.057 223.682 190.143 224.647 190.273C234.589 191.613 244.343 196.123 251.087 202.448C251.49 202.808 251.894 203.183 252.268 203.586C259.674 211.179 263.795 221.107 263.795 231.15C263.795 231.842 263.781 232.534 263.723 233.211C263.334 239.94 261.129 246.279 257.369 251.755C255.265 254.81 252.686 257.591 249.646 260.04C243.162 265.256 227.572 271.264 214.936 256.942C213.538 255.371 212.4 253.628 211.507 251.755C209.792 248.138 209.086 244.032 209.476 239.825C210.11 233.269 213.381 227.246 218.453 223.313C222.934 219.855 228.51 218.256 234.173 218.789C235.124 218.861 236.104 219.019 237.069 219.236C239.374 219.755 240.829 222.017 240.311 224.336C239.807 226.627 237.53 228.097 235.21 227.578C231.103 226.67 226.91 227.578 223.683 230.085C220.455 232.578 218.38 236.396 217.991 240.632C217.602 244.609 218.784 248.427 221.348 251.295C221.478 251.453 221.636 251.612 221.766 251.756C231.852 262.606 243.048 254.364 244.301 253.37C244.949 252.851 245.54 252.318 246.145 251.756C251.577 246.641 254.776 239.97 255.208 232.722C255.698 224.264 252.485 216.037 246.145 209.553C241.16 204.438 233.653 200.648 225.714 199.121C224.979 198.963 224.244 198.847 223.481 198.732C216.983 197.868 210.326 199.51 204.764 203.386C203.539 204.25 202.473 205.302 201.335 206.412C188.886 218.573 184.146 236.007 188.151 251.756C189.087 255.373 190.471 258.903 192.315 262.274C199.779 275.775 212.487 284.752 227.227 286.927C241.967 289.088 256.476 284.391 267.11 274.017C285.164 256.366 291.244 222.204 272.341 202.853L272.339 202.854ZM147.517 236.873C147.142 240.749 145.759 243.804 142.359 246.628C138.973 243.804 137.59 240.749 137.215 236.873C135.861 227.133 136.639 217.393 137.417 207.638C137.907 201.903 138.555 193.777 139.305 188.143C140.083 181.645 141.02 175.146 142.359 168.648C143.714 175.146 144.65 181.645 145.428 188.143C146.163 193.748 146.826 201.918 147.301 207.638C148.094 217.393 148.872 227.133 147.517 236.873Z" fill="white"/>
</svg>
